0
SECTION
2
HEADER
9
$INSUNITS
70
4
9
$ACADVER
1
AC1014
9
$HANDSEED
5
FFFF
0
ENDSEC
0
SECTION
2
TABLES
0
TABLE
2
VPORT
5
8
100
AcDbSymbolTable
0
ENDTAB
0
TABLE
2
LTYPE
5
5
100
AcDbSymbolTable
0
LTYPE
5
14
100
AcDbSymbolTableRecord
100
AcDbLinetypeTableRecord
2
BYBLOCK
70
0
0
LTYPE
5
15
100
AcDbSymbolTableRecord
100
AcDbLinetypeTableRecord
2
BYLAYER
70
0
0
ENDTAB
0
TABLE
2
LAYER
5
2
100
AcDbSymbolTable
70
2
0
LAYER
5
50
100
AcDbSymbolTableRecord
100
AcDbLayerTableRecord
2
0
70
0
6
CONTINUOUS
0
ENDTAB
0
TABLE
2
STYLE
5
3
100
AcDbSymbolTable
70
1
0
STYLE
5
11
100
AcDbSymbolTableRecord
100
AcDbTextStyleTableRecord
2
STANDARD
70
0
0
ENDTAB
0
TABLE
2
VIEW
5
6
100
AcDbSymbolTable
70
0
0
ENDTAB
0
TABLE
2
UCS
5
7
100
AcDbSymbolTable
70
0
0
ENDTAB
0
TABLE
2
APPID
5
9
100
AcDbSymbolTable
70
2
0
APPID
5
12
100
AcDbSymbolTableRecord
100
AcDbRegAppTableRecord
2
ACAD
70
0
0
ENDTAB
0
TABLE
2
DIMSTYLE
5
A
100
AcDbSymbolTable
70
1
0
ENDTAB
0
TABLE
2
BLOCK_RECORD
5
1
100
AcDbSymbolTable
70
1
0
BLOCK_RECORD
5
1F
100
AcDbSymbolTableRecord
100
AcDbBlockTableRecord
2
*MODEL_SPACE
0
BLOCK_RECORD
5
1B
100
AcDbSymbolTableRecord
100
AcDbBlockTableRecord
2
*PAPER_SPACE
0
ENDTAB
0
ENDSEC
0
SECTION
2
BLOCKS
0
BLOCK
5
20
100
AcDbEntity
100
AcDbBlockBegin
2
*MODEL_SPACE
0
ENDBLK
5
21
100
AcDbEntity
100
AcDbBlockEnd
0
BLOCK
5
1C
100
AcDbEntity
100
AcDbBlockBegin
2
*PAPER_SPACE
0
ENDBLK
5
1D
100
AcDbEntity
100
AcDbBlockEnd
0
ENDSEC
0
SECTION
2
ENTITIES
0
LINE
5
100
100
AcDbEntity
8
0
100
AcDbLine
10
2.6100118475902584e-15
20
57.574999999999989
30
0
11
3.9999999999999973
21
57.574999999999974
31
0
0
LWPOLYLINE
5
101
100
AcDbEntity
8
0
100
AcDbPolyline
90
4
70
1
43
0.0
10
22.600000000000012
20
99.749999999999972
10
13.600000000000009
20
99.749999999999972
10
13.600000000000005
20
96.249999999999986
10
22.600000000000012
20
96.249999999999986
0
LINE
5
102
100
AcDbEntity
8
0
100
AcDbLine
10
57.025304832720423
20
105.66099642327418
30
0
11
54.974695167279435
21
107.7116060887152
31
0
0
CIRCLE
5
103
100
AcDbEntity
8
0
100
AcDbCircle
10
59.74999999999995
20
90.999999999999972
30
0
40
1.25
210
0
220
0
230
1
0
LINE
5
104
100
AcDbEntity
8
0
100
AcDbLine
10
3.8515141833184256e-15
20
31.449999999999996
30
0
11
3.9999999999999942
21
31.449999999999999
31
0
0
LINE
5
105
100
AcDbEntity
8
0
100
AcDbLine
10
60.049834970263667
20
108.68552656081744
30
0
11
57.025304832720423
21
105.66099642327418
31
0
0
LINE
5
106
100
AcDbEntity
8
0
100
AcDbLine
10
0
20
0
30
0
11
15.549999999999997
21
-1.9043257726741338e-15
31
0
0
LWPOLYLINE
5
107
100
AcDbEntity
8
0
100
AcDbPolyline
90
4
70
1
43
0.0
10
53.399999999999949
20
64.899999999999977
10
66.099999999999952
20
64.899999999999977
10
66.099999999999952
20
88.099999999999994
10
53.399999999999949
20
88.099999999999994
0
LWPOLYLINE
5
108
100
AcDbEntity
8
0
100
AcDbPolyline
90
4
70
1
43
0.0
10
9.9000000000000057
20
64.899999999999977
10
22.600000000000009
20
64.899999999999977
10
22.600000000000009
20
88.099999999999994
10
9.9000000000000092
20
88.099999999999994
0
ELLIPSE
5
109
100
AcDbEntity
8
0
100
AcDbEllipse
10
38
20
69.999999999999972
30
0
11
-2.1938503319678975e-14
21
47.499999999999986
31
0.0
40
0.80000000000000016
41
5.7350052747523383
42
6.8313653396068341
0
LINE
5
110
100
AcDbEntity
8
0
100
AcDbLine
10
21.025304832720519
20
107.7116060887152
30
0
11
18.974695167279535
21
105.66099642327418
31
0
0
LWPOLYLINE
5
111
100
AcDbEntity
8
0
100
AcDbPolyline
90
4
70
1
43
0.0
10
62.399999999999949
20
96.249999999999986
10
62.399999999999949
20
99.749999999999972
10
53.399999999999949
20
99.749999999999972
10
53.399999999999949
20
96.249999999999986
0
LINE
5
112
100
AcDbEntity
8
0
100
AcDbLine
10
18.196877707974316
20
110.54003321346138
30
0
11
21.025304832720519
21
107.7116060887152
31
0
0
LWPOLYLINE
5
113
100
AcDbEntity
8
0
100
AcDbPolyline
90
4
70
1
43
0.0
10
47.399999999999942
20
45.699999999999996
10
47.399999999999935
20
7.4999999999999947
10
51.399999999999942
20
7.4999999999999911
10
51.399999999999928
20
45.699999999999996
0
LINE
5
114
100
AcDbEntity
8
0
100
AcDbLine
10
18.974695167279535
20
105.66099642327418
30
0
11
15.950165029736318
21
108.68552656081744
31
0
0
LWPOLYLINE
5
115
100
AcDbEntity
8
0
100
AcDbPolyline
90
4
70
1
43
0.0
10
28.600000000000009
20
45.700000000000003
10
24.600000000000016
20
45.700000000000003
10
24.599999999999991
20
7.4999999999999964
10
28.600000000000001
20
7.4999999999999956
0
CIRCLE
5
116
100
AcDbEntity
8
0
100
AcDbCircle
10
71.000000000000028
20
12.499999999999982
30
0
40
1.749999999999998
210
0
220
0
230
1
0
CIRCLE
5
117
100
AcDbEntity
8
0
100
AcDbCircle
10
16.250000000000007
20
90.999999999999972
30
0
40
1.25
210
0
220
0
230
1
0
LINE
5
118
100
AcDbEntity
8
0
100
AcDbLine
10
60.449999999999939
20
3.9999999999999964
30
0
11
60.449999999999939
21
-7.4029899008457425e-15
31
0
0
LINE
5
119
100
AcDbEntity
8
0
100
AcDbLine
10
60.449999999999939
20
-7.4029899008457425e-15
30
0
11
76
21
-9.3073156735198855e-15
31
0
0
CIRCLE
5
120
100
AcDbEntity
8
0
100
AcDbCircle
10
38
20
110.82575694955835
30
0
40
1.7500000000000002
210
0
220
0
230
1
0
LINE
5
121
100
AcDbEntity
8
0
100
AcDbLine
10
54.974695167279435
20
107.7116060887152
30
0
11
57.803122292025655
21
110.54003321346138
31
0
0
CIRCLE
5
122
100
AcDbEntity
8
0
100
AcDbCircle
10
16.250000000000007
20
61.999999999999986
30
0
40
1.25
210
0
220
0
230
1
0
LINE
5
123
100
AcDbEntity
8
0
100
AcDbLine
10
18.449999999999996
20
-2.2594733444268663e-15
30
0
11
57.54999999999994
21
-7.0478423290930097e-15
31
0
0
LINE
5
124
100
AcDbEntity
8
0
100
AcDbLine
10
75.999999999999957
20
54.674999999999969
30
0
11
71.999999999999943
21
54.674999999999969
31
0
0
LINE
5
125
100
AcDbEntity
8
0
100
AcDbLine
10
75.999999999999929
20
31.449999999999989
30
0
11
75.999999999999957
21
54.674999999999969
31
0
0
LINE
5
126
100
AcDbEntity
8
0
100
AcDbLine
10
3.9999999999999973
20
57.574999999999974
30
0
11
3.9999999999999969
21
54.674999999999976
31
0
0
LINE
5
127
100
AcDbEntity
8
0
100
AcDbLine
10
3.9999999999999942
20
31.449999999999999
30
0
11
3.9999999999999938
21
28.550000000000001
31
0
0
CIRCLE
5
128
100
AcDbEntity
8
0
100
AcDbCircle
10
27.70000000000001
20
48.200000000000003
30
0
40
1.5000000000000013
210
0
220
0
230
1
0
LINE
5
129
100
AcDbEntity
8
0
100
AcDbLine
10
15.549999999999997
20
-1.9043257726741338e-15
30
0
11
15.549999999999997
21
4.0000000000000018
31
0
0
ELLIPSE
5
130
100
AcDbEntity
8
0
100
AcDbEllipse
10
38
20
69.999999999999972
30
0
11
-2.1938503319678975e-14
21
47.499999999999986
31
0.0
40
0.80000000000000016
41
4.7123889803846897
42
5.6641388666221468
0
LINE
5
131
100
AcDbEntity
8
0
100
AcDbLine
10
57.54999999999994
20
3.9999999999999964
30
0
11
60.449999999999939
21
3.9999999999999964
31
0
0
LINE
5
132
100
AcDbEntity
8
0
100
AcDbLine
10
3.4963666115656927e-15
20
28.549999999999997
30
0
11
0
21
0
31
0
0
CIRCLE
5
133
100
AcDbEntity
8
0
100
AcDbCircle
10
27.700000000000003
20
4.9999999999999964
30
0
40
1.5000000000000013
210
0
220
0
230
1
0
LINE
5
134
100
AcDbEntity
8
0
100
AcDbLine
10
15.549999999999997
20
4.0000000000000018
30
0
11
18.449999999999996
21
4.0000000000000018
31
0
0
CIRCLE
5
135
100
AcDbEntity
8
0
100
AcDbCircle
10
48.299999999999926
20
4.9999999999999938
30
0
40
1.5000000000000013
210
0
220
0
230
1
0
LINE
5
136
100
AcDbEntity
8
0
100
AcDbLine
10
3.9999999999999969
20
54.674999999999976
30
0
11
2.2548642758375247e-15
21
54.674999999999976
31
0
0
LINE
5
137
100
AcDbEntity
8
0
100
AcDbLine
10
71.999999999999943
20
57.574999999999967
30
0
11
75.999999999999957
21
57.574999999999974
31
0
0
LINE
5
138
100
AcDbEntity
8
0
100
AcDbLine
10
2.2548642758375247e-15
20
54.674999999999976
30
0
11
3.8515141833184256e-15
21
31.449999999999996
31
0
0
LINE
5
139
100
AcDbEntity
8
0
100
AcDbLine
10
76
20
-9.3073156735198855e-15
30
0
11
75.999999999999929
21
28.549999999999986
31
0
0
LINE
5
140
100
AcDbEntity
8
0
100
AcDbLine
10
3.9999999999999938
20
28.550000000000001
30
0
11
3.4963666115656927e-15
21
28.549999999999997
31
0
0
CIRCLE
5
141
100
AcDbEntity
8
0
100
AcDbCircle
10
4.999999999999913
20
12.499999999999991
30
0
40
1.749999999999998
210
0
220
0
230
1
0
LINE
5
142
100
AcDbEntity
8
0
100
AcDbLine
10
71.999999999999943
20
54.674999999999969
30
0
11
71.999999999999943
21
57.574999999999967
31
0
0
LINE
5
143
100
AcDbEntity
8
0
100
AcDbLine
10
71.999999999999943
20
31.449999999999992
30
0
11
75.999999999999929
21
31.449999999999989
31
0
0
LINE
5
144
100
AcDbEntity
8
0
100
AcDbLine
10
75.999999999999929
20
28.549999999999986
30
0
11
71.999999999999943
21
28.54999999999999
31
0
0
LINE
5
145
100
AcDbEntity
8
0
100
AcDbLine
10
71.999999999999943
20
28.54999999999999
30
0
11
71.999999999999943
21
31.449999999999992
31
0
0
CIRCLE
5
146
100
AcDbEntity
8
0
100
AcDbCircle
10
48.29999999999994
20
48.199999999999996
30
0
40
1.5000000000000013
210
0
220
0
230
1
0
LINE
5
147
100
AcDbEntity
8
0
100
AcDbLine
10
18.449999999999996
20
4.0000000000000018
30
0
11
18.449999999999996
21
-2.2594733444268663e-15
31
0
0
LINE
5
148
100
AcDbEntity
8
0
100
AcDbLine
10
57.54999999999994
20
-7.0478423290930097e-15
30
0
11
57.54999999999994
21
3.9999999999999964
31
0
0
CIRCLE
5
149
100
AcDbEntity
8
0
100
AcDbCircle
10
59.749999999999943
20
61.999999999999972
30
0
40
1.25
210
0
220
0
230
1
0
LINE
5
150
100
AcDbEntity
8
0
100
AcDbLine
10
8.5725275940314683e-15
20
69.999999999999972
30
0
11
2.6100118475902584e-15
21
57.574999999999989
31
0
0
LINE
5
151
100
AcDbEntity
8
0
100
AcDbLine
10
75.999999999999957
20
57.574999999999974
30
0
11
76
21
69.999999999999986
31
0
0
ELLIPSE
5
152
100
AcDbEntity
8
0
100
AcDbEllipse
10
38
20
69.999999999999972
30
0
11
-2.1938503319678975e-14
21
47.499999999999986
31
0.0
40
0.80000000000000016
41
0.61904644055743807
42
1.5707963267948963
0
LWPOLYLINE
5
153
100
AcDbEntity
8
0
100
AcDbPolyline
90
4
70
1
43
0.0
10
15.636718749999972
20
28.749999999999972
10
12.999999999999975
20
28.749999999999972
10
12.999999999999975
20
38.749999999999972
10
15.636718749999972
20
38.749999999999972
0
LWPOLYLINE
5
154
100
AcDbEntity
8
0
100
AcDbPolyline
90
4
70
1
43
0.0
10
110.60000000000002
20
7.4999999999999822
10
114.60000000000001
20
7.4999999999999822
10
114.60000000000005
20
45.699999999999996
10
110.60000000000002
20
45.699999999999996
0
LINE
5
155
100
AcDbEntity
8
0
100
AcDbLine
10
146.44999999999996
20
-1.7763568394002505e-14
30
0
11
162.00000000000003
21
-2.6645352591003757e-14
31
0
0
LINE
5
156
100
AcDbEntity
8
0
100
AcDbLine
10
101.55000000000001
20
3.9999999999999858
30
0
11
104.45
21
3.9999999999999858
31
0
0
LINE
5
157
100
AcDbEntity
8
0
100
AcDbLine
10
157.00000000000003
20
59.749999999999972
30
0
11
130.39999999999995
21
59.749999999999972
31
0
0
LINE
5
158
100
AcDbEntity
8
0
100
AcDbLine
10
91.000000000000014
20
59.749999999999972
30
0
11
91.000000000000014
21
69.999999999999957
31
0
0
LINE
5
159
100
AcDbEntity
8
0
100
AcDbLine
10
148.39999999999998
20
99.749999999999972
30
0
11
148.39999999999998
21
98.547146761164697
31
0
0
LINE
5
160
100
AcDbEntity
8
0
100
AcDbLine
10
140.97469516727949
20
107.71160608871519
30
0
11
143.80312229202565
21
110.54003321346141
31
0
0
LINE
5
161
100
AcDbEntity
8
0
100
AcDbLine
10
162.00000000000003
20
57.57499999999996
30
0
11
162.00000000000003
21
69.999999999999986
31
0
0
LINE
5
162
100
AcDbEntity
8
0
100
AcDbLine
10
157.00000000000003
20
69.999999999999986
30
0
11
157.00000000000003
21
59.749999999999972
31
0
0
SPLINE
5
163
100
AcDbEntity
8
0
100
AcDbSpline
70
0
71
3
72
11
73
7
74
0
42
0.000000001
43
0.0000000001
44
0.0000000001
40
0.84756425683946435
40
0.84756425683946435
40
0.84756425683946435
40
0.84756425683946435
40
1.0637638685998452
40
1.0637638685998452
40
1.0637638685998452
40
1.5707963267948968
40
1.5707963267948968
40
1.5707963267948968
40
1.5707963267948968
10
99.600000000000009
20
98.544305489883442
30
0
10
97.984722360876972
20
96.25880164116208
30
0
10
96.551849327862485
20
93.739495640300817
30
0
10
95.349979719875719
20
91.034868264047546
30
0
10
92.531348840728526
20
84.691962021444283
30
0
10
91.000000000000014
20
77.351970643828196
30
0
10
91.000000000000014
20
69.999999999999957
30
0
0
LINE
5
164
100
AcDbEntity
8
0
100
AcDbLine
10
104.19687770797431
20
110.54003321346137
30
0
11
107.02530483272054
21
107.71160608871519
31
0
0
ELLIPSE
5
165
100
AcDbEntity
8
0
100
AcDbEllipse
10
124.00000000000003
20
69.999999999999957
30
0
11
-2.1938503319678975e-14
21
47.499999999999986
31
0.0
40
0.80000000000000016
41
4.7123889803846897
42
5.6641388666221486
0
LINE
5
166
100
AcDbEntity
8
0
100
AcDbLine
10
146.04983497026367
20
108.68552656081744
30
0
11
143.02530483272045
21
105.66099642327418
31
0
0
CIRCLE
5
167
100
AcDbEntity
8
0
100
AcDbCircle
10
113.70000000000005
20
48.199999999999996
30
0
40
1.5000000000000013
210
0
220
0
230
1
0
CIRCLE
5
168
100
AcDbEntity
8
0
100
AcDbCircle
10
134.29999999999995
20
48.199999999999996
30
0
40
1.5000000000000013
210
0
220
0
230
1
0
SPLINE
5
169
100
AcDbEntity
8
0
100
AcDbSpline
70
0
71
3
72
14
73
10
74
0
42
0.000000001
43
0.0000000001
44
0.0000000001
40
-1.5707963267948966
40
-1.5707963267948966
40
-1.5707963267948966
40
-1.5707963267948966
40
-1.5196586914688655
40
-1.5196586914688655
40
-1.5196586914688655
40
-1.0106392069674883
40
-1.0106392069674883
40
-1.0106392069674883
40
-0.84751437679760699
40
-0.84751437679760699
40
-0.84751437679760699
40
-0.84751437679760699
10
157.00000000000003
20
69.999999999999986
30
0
10
157.00000000000003
20
70.741495712227433
30
0
10
156.98482837615612
20
71.482991301314257
30
0
10
156.954510864192
20
72.223421510258518
30
0
10
156.65273304022861
20
79.593598110391767
30
0
10
154.81042255304018
20
86.842883892823977
30
0
10
151.72349174775476
20
92.995399376882546
30
0
10
150.7342269382718
20
94.967088229692848
30
0
10
149.61919894152402
20
96.823987357791452
30
0
10
148.39999999999998
20
98.547146761164697
30
0
0
LINE
5
170
100
AcDbEntity
8
0
100
AcDbLine
10
86.000000000000014
20
69.999999999999957
30
0
11
86.000000000000014
21
57.57499999999996
31
0
0
LINE
5
171
100
AcDbEntity
8
0
100
AcDbLine
10
104.97469516727958
20
105.66099642327418
30
0
11
101.95016502973633
21
108.68552656081744
31
0
0
ELLIPSE
5
172
100
AcDbEntity
8
0
100
AcDbEllipse
10
124.00000000000003
20
69.999999999999957
30
0
11
-2.1938503319678975e-14
21
47.499999999999986
31
0.0
40
0.80000000000000016
41
5.7350052747523392
42
6.831365339606835
0
LINE
5
173
100
AcDbEntity
8
0
100
AcDbLine
10
107.02530483272054
20
107.71160608871519
30
0
11
104.97469516727958
21
105.66099642327418
31
0
0
ELLIPSE
5
174
100
AcDbEntity
8
0
100
AcDbEllipse
10
124.00000000000003
20
69.999999999999957
30
0
11
-2.1938503319678975e-14
21
47.499999999999986
31
0.0
40
0.80000000000000016
41
0.61904644055743807
42
1.5707963267948963
0
LINE
5
175
100
AcDbEntity
8
0
100
AcDbLine
10
99.600000000000009
20
98.544305489883442
30
0
11
99.600000000000009
21
99.749999999999972
31
0
0
LINE
5
176
100
AcDbEntity
8
0
100
AcDbLine
10
86.000000000000014
20
28.549999999999986
30
0
11
86.000000000000014
21
-8.8817841970012523e-15
31
0
0
LINE
5
177
100
AcDbEntity
8
0
100
AcDbLine
10
162.00000000000003
20
-2.6645352591003757e-14
30
0
11
161.99999999999994
21
28.549999999999976
31
0
0
LINE
5
178
100
AcDbEntity
8
0
100
AcDbLine
10
99.600000000000009
20
99.749999999999972
30
0
11
148.39999999999998
21
99.749999999999972
31
0
0
LINE
5
179
100
AcDbEntity
8
0
100
AcDbLine
10
157.99999999999997
20
54.674999999999969
30
0
11
157.99999999999997
21
57.57499999999996
31
0
0
LWPOLYLINE
5
180
100
AcDbEntity
8
0
100
AcDbPolyline
90
4
70
1
43
0.0
10
133.39999999999998
20
7.4999999999999822
10
137.39999999999995
20
7.4999999999999822
10
137.39999999999995
20
45.699999999999996
10
133.39999999999998
20
45.699999999999996
0
LINE
5
181
100
AcDbEntity
8
0
100
AcDbLine
10
130.39999999999995
20
59.749999999999972
30
0
11
130.39999999999995
21
7.4999999999999822
31
0
0
LINE
5
182
100
AcDbEntity
8
0
100
AcDbLine
10
143.02530483272045
20
105.66099642327418
30
0
11
140.97469516727949
21
107.71160608871519
31
0
0
CIRCLE
5
183
100
AcDbEntity
8
0
100
AcDbCircle
10
124.00000000000003
20
110.82575694955835
30
0
40
1.7500000000000002
210
0
220
0
230
1
0
LINE
5
184
100
AcDbEntity
8
0
100
AcDbLine
10
90
20
54.674999999999969
30
0
11
86.000000000000014
21
54.674999999999969
31
0
0
LINE
5
185
100
AcDbEntity
8
0
100
AcDbLine
10
101.55000000000001
20
-1.7763568394002505e-14
30
0
11
101.55000000000001
21
3.9999999999999858
31
0
0
LINE
5
186
100
AcDbEntity
8
0
100
AcDbLine
10
117.60000000000002
20
7.4999999999999822
30
0
11
117.60000000000002
21
59.749999999999972
31
0
0
LINE
5
187
100
AcDbEntity
8
0
100
AcDbLine
10
86.000000000000014
20
31.449999999999989
30
0
11
90
21
31.449999999999989
31
0
0
CIRCLE
5
188
100
AcDbEntity
8
0
100
AcDbCircle
10
157.00000000000003
20
12.499999999999973
30
0
40
1.749999999999998
210
0
220
0
230
1
0
LINE
5
189
100
AcDbEntity
8
0
100
AcDbLine
10
117.60000000000002
20
59.749999999999972
30
0
11
91.000000000000014
21
59.749999999999972
31
0
0
LINE
5
190
100
AcDbEntity
8
0
100
AcDbLine
10
86.000000000000014
20
57.57499999999996
30
0
11
90
21
57.57499999999996
31
0
0
LINE
5
191
100
AcDbEntity
8
0
100
AcDbLine
10
161.99999999999994
20
28.549999999999976
30
0
11
157.99999999999997
21
28.549999999999976
31
0
0
LINE
5
192
100
AcDbEntity
8
0
100
AcDbLine
10
90
20
31.449999999999989
30
0
11
90
21
28.549999999999986
31
0
0
CIRCLE
5
193
100
AcDbEntity
8
0
100
AcDbCircle
10
113.70000000000002
20
4.9999999999999822
30
0
40
1.5000000000000013
210
0
220
0
230
1
0
LINE
5
194
100
AcDbEntity
8
0
100
AcDbLine
10
146.44999999999996
20
3.9999999999999858
30
0
11
146.44999999999996
21
-1.7763568394002505e-14
31
0
0
LINE
5
195
100
AcDbEntity
8
0
100
AcDbLine
10
157.99999999999997
20
28.549999999999976
30
0
11
157.99999999999997
21
31.449999999999978
31
0
0
LINE
5
196
100
AcDbEntity
8
0
100
AcDbLine
10
161.99999999999994
20
54.674999999999969
30
0
11
157.99999999999997
21
54.674999999999969
31
0
0
LINE
5
197
100
AcDbEntity
8
0
100
AcDbLine
10
130.39999999999995
20
7.4999999999999822
30
0
11
117.60000000000002
21
7.4999999999999822
31
0
0
LINE
5
198
100
AcDbEntity
8
0
100
AcDbLine
10
162.00000000000003
20
31.449999999999978
30
0
11
161.99999999999994
21
54.674999999999969
31
0
0
LINE
5
199
100
AcDbEntity
8
0
100
AcDbLine
10
143.54999999999995
20
3.9999999999999858
30
0
11
146.44999999999996
21
3.9999999999999858
31
0
0
LINE
5
200
100
AcDbEntity
8
0
100
AcDbLine
10
104.45
20
-1.7763568394002505e-14
30
0
11
143.54999999999995
21
-1.7763568394002505e-14
31
0
0
LINE
5
201
100
AcDbEntity
8
0
100
AcDbLine
10
157.99999999999997
20
31.449999999999978
30
0
11
162.00000000000003
21
31.449999999999978
31
0
0
LINE
5
202
100
AcDbEntity
8
0
100
AcDbLine
10
90
20
57.57499999999996
30
0
11
90
21
54.674999999999969
31
0
0
CIRCLE
5
203
100
AcDbEntity
8
0
100
AcDbCircle
10
134.29999999999995
20
4.9999999999999822
30
0
40
1.5000000000000013
210
0
220
0
230
1
0
LINE
5
204
100
AcDbEntity
8
0
100
AcDbLine
10
157.99999999999997
20
57.57499999999996
30
0
11
162.00000000000003
21
57.57499999999996
31
0
0
CIRCLE
5
205
100
AcDbEntity
8
0
100
AcDbCircle
10
90.999999999999943
20
12.499999999999973
30
0
40
1.749999999999998
210
0
220
0
230
1
0
LINE
5
206
100
AcDbEntity
8
0
100
AcDbLine
10
86.000000000000014
20
54.674999999999969
30
0
11
86.000000000000014
21
31.449999999999989
31
0
0
LINE
5
207
100
AcDbEntity
8
0
100
AcDbLine
10
90
20
28.549999999999986
30
0
11
86.000000000000014
21
28.549999999999986
31
0
0
LINE
5
208
100
AcDbEntity
8
0
100
AcDbLine
10
86.000000000000014
20
-8.8817841970012523e-15
30
0
11
101.55000000000001
21
-1.7763568394002505e-14
31
0
0
LINE
5
209
100
AcDbEntity
8
0
100
AcDbLine
10
143.54999999999995
20
-1.7763568394002505e-14
30
0
11
143.54999999999995
21
3.9999999999999858
31
0
0
LINE
5
210
100
AcDbEntity
8
0
100
AcDbLine
10
104.45
20
3.9999999999999858
30
0
11
104.45
21
-1.7763568394002505e-14
31
0
0
LWPOLYLINE
5
211
100
AcDbEntity
8
0
100
AcDbPolyline
90
4
70
1
43
0.0
10
102.74121093749997
20
28.749999999999972
10
97.999999999999972
20
28.749999999999972
10
97.999999999999972
20
38.749999999999972
10
102.74121093749997
20
38.749999999999972
0
LINE
5
212
100
AcDbEntity
8
0
100
AcDbLine
10
226.97469516727949
20
107.71160608871514
30
0
11
229.80312229202568
21
110.54003321346137
31
0
0
ELLIPSE
5
213
100
AcDbEntity
8
0
100
AcDbEllipse
10
210.00000000000006
20
69.999999999999943
30
0
11
-2.1938503319678975e-14
21
47.499999999999986
31
0.0
40
0.80000000000000016
41
5.7350052747523401
42
6.831365339606835
0
LINE
5
214
100
AcDbEntity
8
0
100
AcDbLine
10
176.00000000000006
20
57.574999999999939
30
0
11
176.00000000000006
21
54.674999999999947
31
0
0
LINE
5
215
100
AcDbEntity
8
0
100
AcDbLine
10
229.54999999999998
20
-2.6645352591003757e-14
30
0
11
229.54999999999998
21
3.9999999999999591
31
0
0
CIRCLE
5
216
100
AcDbEntity
8
0
100
AcDbCircle
10
199.70000000000005
20
4.9999999999999734
30
0
40
1.5000000000000013
210
0
220
0
230
1
0
LINE
5
217
100
AcDbEntity
8
0
100
AcDbLine
10
229.54999999999998
20
3.9999999999999591
30
0
11
232.44999999999999
21
3.9999999999999591
31
0
0
LINE
5
218
100
AcDbEntity
8
0
100
AcDbLine
10
187.55000000000001
20
-2.6645352591003757e-14
30
0
11
187.55000000000001
21
3.9999999999999591
31
0
0
CIRCLE
5
219
100
AcDbEntity
8
0
100
AcDbCircle
10
220.30000000000001
20
4.9999999999999734
30
0
40
1.5000000000000013
210
0
220
0
230
1
0
LWPOLYLINE
5
220
100
AcDbEntity
8
0
100
AcDbPolyline
90
4
70
1
43
0.0
10
174
20
1.9999999999999662
10
180
20
1.9999999999999662
10
180
20
22.999999999999979
10
174
20
22.999999999999979
0
LINE
5
221
100
AcDbEntity
8
0
100
AcDbLine
10
172.00000000000003
20
-2.6645352591003757e-14
30
0
11
187.55000000000001
21
-2.6645352591003757e-14
31
0
0
LINE
5
222
100
AcDbEntity
8
0
100
AcDbLine
10
187.55000000000001
20
3.9999999999999591
30
0
11
190.45000000000005
21
3.9999999999999591
31
0
0
LINE
5
223
100
AcDbEntity
8
0
100
AcDbLine
10
247.99999999999997
20
28.549999999999976
30
0
11
244
21
28.549999999999976
31
0
0
LWPOLYLINE
5
224
100
AcDbEntity
8
0
100
AcDbPolyline
90
4
70
1
43
0.0
10
194.60000000000005
20
7.4999999999999734
10
225.39999999999998
20
7.4999999999999734
10
225.39999999999998
20
52.499999999999972
10
194.60000000000005
20
52.499999999999972
0
LINE
5
225
100
AcDbEntity
8
0
100
AcDbLine
10
176.00000000000006
20
54.674999999999947
30
0
11
172.00000000000006
21
54.674999999999947
31
0
0
LINE
5
226
100
AcDbEntity
8
0
100
AcDbLine
10
172.00000000000006
20
57.574999999999939
30
0
11
176.00000000000006
21
57.574999999999939
31
0
0
LINE
5
227
100
AcDbEntity
8
0
100
AcDbLine
10
244
20
28.549999999999976
30
0
11
244
21
31.449999999999967
31
0
0
LINE
5
228
100
AcDbEntity
8
0
100
AcDbLine
10
190.45000000000005
20
3.9999999999999591
30
0
11
190.45000000000005
21
-2.6645352591003757e-14
31
0
0
LINE
5
229
100
AcDbEntity
8
0
100
AcDbLine
10
244
20
54.674999999999947
30
0
11
244
21
57.574999999999939
31
0
0
LINE
5
230
100
AcDbEntity
8
0
100
AcDbLine
10
172.00000000000006
20
54.674999999999947
30
0
11
172.00000000000006
21
31.449999999999967
31
0
0
LINE
5
231
100
AcDbEntity
8
0
100
AcDbLine
10
247.99999999999997
20
54.674999999999947
30
0
11
244
21
54.674999999999947
31
0
0
LINE
5
232
100
AcDbEntity
8
0
100
AcDbLine
10
232.44999999999999
20
3.9999999999999591
30
0
11
232.44999999999999
21
-2.6645352591003757e-14
31
0
0
LWPOLYLINE
5
233
100
AcDbEntity
8
0
100
AcDbPolyline
90
4
70
1
43
0.0
10
240.00000000000006
20
1.9999999999999662
10
246.00000000000009
20
1.9999999999999662
10
246.00000000000009
20
22.999999999999943
10
240.00000000000006
20
22.999999999999943
0
LINE
5
234
100
AcDbEntity
8
0
100
AcDbLine
10
248.00000000000006
20
31.449999999999967
30
0
11
247.99999999999997
21
54.674999999999947
31
0
0
LINE
5
235
100
AcDbEntity
8
0
100
AcDbLine
10
232.44999999999999
20
-2.6645352591003757e-14
30
0
11
248.00000000000006
21
-2.6645352591003757e-14
31
0
0
LINE
5
236
100
AcDbEntity
8
0
100
AcDbLine
10
190.45000000000005
20
-2.6645352591003757e-14
30
0
11
229.54999999999998
21
-2.6645352591003757e-14
31
0
0
LINE
5
237
100
AcDbEntity
8
0
100
AcDbLine
10
190.19687770797435
20
110.54003321346133
30
0
11
193.02530483272056
21
107.71160608871514
31
0
0
LWPOLYLINE
5
238
100
AcDbEntity
8
0
100
AcDbPolyline
90
4
70
1
43
0.0
10
202.00000000000003
20
107.82575694955831
10
218.00000000000006
20
107.82575694955831
10
218.00000000000006
20
113.82575694955833
10
202.00000000000003
20
113.82575694955833
0
LINE
5
239
100
AcDbEntity
8
0
100
AcDbLine
10
181.90000000000003
20
64.89999999999992
30
0
11
181.90000000000001
21
92.226242549349138
31
0
0
LINE
5
240
100
AcDbEntity
8
0
100
AcDbLine
10
190.97469516727958
20
105.66099642327416
30
0
11
187.95016502973638
21
108.68552656081739
31
0
0
LINE
5
241
100
AcDbEntity
8
0
100
AcDbLine
10
229.02530483272045
20
105.66099642327416
30
0
11
226.97469516727949
21
107.71160608871514
31
0
0
LINE
5
242
100
AcDbEntity
8
0
100
AcDbLine
10
172.00000000000006
20
31.449999999999967
30
0
11
176.00000000000006
21
31.449999999999967
31
0
0
LINE
5
243
100
AcDbEntity
8
0
100
AcDbLine
10
176.00000000000006
20
31.449999999999967
30
0
11
176.00000000000006
21
28.549999999999976
31
0
0
LINE
5
244
100
AcDbEntity
8
0
100
AcDbLine
10
194.60000000000002
20
93.249999999999915
30
0
11
194.60000000000005
21
64.89999999999992
31
0
0
LWPOLYLINE
5
245
100
AcDbEntity
8
0
100
AcDbPolyline
90
4
70
1
43
0.0
10
225.39999999999998
20
93.249999999999957
10
225.39999999999998
20
64.899999999999963
10
238.10000000000002
20
64.899999999999963
10
238.10000000000002
20
93.249999999999915
0
LINE
5
246
100
AcDbEntity
8
0
100
AcDbLine
10
193.02530483272056
20
107.71160608871514
30
0
11
190.97469516727958
21
105.66099642327416
31
0
0
LINE
5
247
100
AcDbEntity
8
0
100
AcDbLine
10
232.04983497026376
20
108.68552656081739
30
0
11
229.02530483272045
21
105.66099642327416
31
0
0
LINE
5
248
100
AcDbEntity
8
0
100
AcDbLine
10
182.4066312746325
20
93.249999999999915
30
0
11
194.60000000000002
21
93.249999999999915
31
0
0
ELLIPSE
5
249
100
AcDbEntity
8
0
100
AcDbEllipse
10
210.00000000000006
20
69.999999999999943
30
0
11
-2.1938503319678975e-14
21
47.499999999999986
31
0.0
40
0.80000000000000016
41
0.61904644055743918
42
1.5707963267948963
0
LINE
5
250
100
AcDbEntity
8
0
100
AcDbLine
10
194.60000000000005
20
64.89999999999992
30
0
11
181.90000000000003
21
64.89999999999992
31
0
0
ELLIPSE
5
251
100
AcDbEntity
8
0
100
AcDbEllipse
10
210.00000000000006
20
69.999999999999943
30
0
11
-2.1938503319678975e-14
21
47.499999999999986
31
0.0
40
0.80000000000000016
41
4.7123889803846897
42
5.6641388666221477
0
LINE
5
252
100
AcDbEntity
8
0
100
AcDbLine
10
244
20
31.449999999999967
30
0
11
248.00000000000006
21
31.449999999999967
31
0
0
LINE
5
253
100
AcDbEntity
8
0
100
AcDbLine
10
244
20
57.574999999999939
30
0
11
248.00000000000006
21
57.574999999999939
31
0
0
LINE
5
254
100
AcDbEntity
8
0
100
AcDbLine
10
248.00000000000006
20
-2.6645352591003757e-14
30
0
11
247.99999999999997
21
28.549999999999976
31
0
0
SPLINE
5
255
100
AcDbEntity
8
0
100
AcDbSpline
70
0
71
3
72
8
73
4
74
0
42
0.000000001
43
0.0000000001
44
0.0000000001
40
1.0035638003325238
40
1.0035638003325238
40
1.0035638003325238
40
1.0035638003325238
40
1.0316886519942039
40
1.0316886519942039
40
1.0316886519942039
40
1.0316886519942039
10
182.4066312746325
20
93.249999999999915
30
0
10
182.23403831154576
20
92.91207653132534
30
0
10
182.065125557611
20
92.570788472005205
30
0
10
181.90000000000001
20
92.226242549349138
30
0
0
LINE
5
256
100
AcDbEntity
8
0
100
AcDbLine
10
172.00000000000006
20
69.999999999999943
30
0
11
172.00000000000006
21
57.574999999999939
31
0
0
LINE
5
257
100
AcDbEntity
8
0
100
AcDbLine
10
172.00000000000003
20
28.549999999999976
30
0
11
172.00000000000003
21
-2.6645352591003757e-14
31
0
0
LINE
5
258
100
AcDbEntity
8
0
100
AcDbLine
10
176.00000000000006
20
28.549999999999976
30
0
11
172.00000000000003
21
28.549999999999976
31
0
0
LINE
5
259
100
AcDbEntity
8
0
100
AcDbLine
10
248.00000000000006
20
57.574999999999939
30
0
11
248.00000000000006
21
69.999999999999972
31
0
0
LWPOLYLINE
5
260
100
AcDbEntity
8
0
100
AcDbPolyline
90
14
70
1
43
0.0
10
80.75
20
97
10
76.75
20
97
42
-0.41421356237309503
10
73.75
20
100
10
73.749999999999986
20
100.45
10
74.249999999999986
20
100.95
10
79.749999999999986
20
100.95
10
79.749999999999986
20
113.05
10
74.25
20
113.05
10
73.749999999999986
20
113.55000000000001
10
73.750000000000014
20
114
42
-0.41421356237309503
10
76.75
20
117
10
80.75
20
117.00000000000001
42
-0.41421356237309503
10
83.75
20
114
10
83.75
20
100
42
-0.41421356237309853
0
LWPOLYLINE
5
261
100
AcDbEntity
8
0
100
AcDbPolyline
90
14
70
1
43
0.0
10
74.249999999999986
20
125.95
10
79.749999999999986
20
125.95
10
79.749999999999986
20
138.05000000000001
10
74.25
20
138.05000000000001
10
73.749999999999986
20
138.55000000000001
10
73.750000000000014
20
139
42
-0.41421356237309503
10
76.75
20
142
10
80.75
20
142
42
-0.41421356237309503
10
83.75
20
139
10
83.75
20
125
42
-0.41421356237309853
10
80.75
20
122
10
76.75
20
122
42
-0.41421356237309503
10
73.75
20
125
10
73.749999999999986
20
125.45
0
LWPOLYLINE
5
262
100
AcDbEntity
8
0
100
AcDbPolyline
90
14
70
1
43
0.0
10
165.75
20
142
42
-0.41421356237309503
10
168.75
20
139
10
168.75
20
125
42
-0.41421356237310025
10
165.75
20
122
10
161.75
20
122
42
-0.41421356237309503
10
158.75
20
125
10
158.75
20
125.45
10
159.25
20
125.95
10
164.74999999999997
20
125.95
10
164.74999999999997
20
138.05000000000001
10
159.25
20
138.05000000000001
10
158.75
20
138.55000000000001
10
158.75000000000003
20
139
42
-0.41421356237309503
10
161.75
20
142
0
LWPOLYLINE
5
263
100
AcDbEntity
8
0
100
AcDbPolyline
90
14
70
1
43
0.0
10
168.75
20
100
42
-0.41421356237310025
10
165.75
20
97
10
161.75
20
97
42
-0.41421356237309503
10
158.75
20
100
10
158.75
20
100.45
10
159.25
20
100.95
10
164.74999999999997
20
100.95
10
164.74999999999997
20
113.05
10
159.25
20
113.05
10
158.75
20
113.55000000000001
10
158.75000000000003
20
114
42
-0.41421356237309503
10
161.75
20
117
10
165.75
20
117.00000000000001
42
-0.41421356237309503
10
168.75
20
114
0
LWPOLYLINE
5
264
100
AcDbEntity
8
0
100
AcDbPolyline
90
14
70
1
43
0.0
10
59.249999999999972
20
125.45000000000002
10
58.749999999999964
20
125.95
10
58.749999999999964
20
131.44999999999999
10
46.649999999999977
20
131.44999999999999
10
46.649999999999977
20
125.95000000000002
10
46.149999999999963
20
125.45000000000002
10
45.699999999999967
20
125.45000000000003
42
-0.41421356237309503
10
42.699999999999974
20
128.45000000000002
10
42.69999999999996
20
132.45000000000002
42
-0.41421356237309503
10
45.699999999999967
20
135.45000000000002
10
59.699999999999974
20
135.45000000000005
42
-0.41421356237310025
10
62.699999999999974
20
132.45000000000002
10
62.699999999999974
20
128.45000000000002
42
-0.41421356237309503
10
59.699999999999974
20
125.45000000000002
0
LWPOLYLINE
5
265
100
AcDbEntity
8
0
100
AcDbPolyline
90
14
70
1
43
0.0
10
20.69999999999995
20
125.45000000000003
42
-0.41421356237309331
10
17.69999999999996
20
128.45000000000002
10
17.699999999999942
20
132.45000000000002
42
-0.41421356237309503
10
20.69999999999995
20
135.45000000000002
10
34.699999999999953
20
135.44999999999999
42
-0.41421356237309681
10
37.69999999999996
20
132.45000000000002
10
37.69999999999996
20
128.45000000000002
42
-0.41421356237309503
10
34.699999999999953
20
125.45000000000002
10
34.249999999999957
20
125.45000000000002
10
33.749999999999943
20
125.95
10
33.749999999999943
20
131.44999999999999
10
21.649999999999956
20
131.44999999999999
10
21.649999999999956
20
125.95000000000002
10
21.149999999999949
20
125.45000000000002
0
LWPOLYLINE
5
266
100
AcDbEntity
8
0
100
AcDbPolyline
90
14
70
1
43
0.0
10
149.25
20
125.45000000000003
10
148.75
20
125.95000000000002
10
148.75
20
131.45000000000002
10
136.65000000000001
20
131.45000000000002
10
136.65000000000001
20
125.95000000000005
10
136.15000000000001
20
125.45000000000003
10
135.69999999999999
20
125.45000000000005
42
-0.41421356237309503
10
132.70000000000002
20
128.45000000000005
10
132.69999999999999
20
132.45000000000002
42
-0.41421356237309503
10
135.69999999999999
20
135.45000000000005
10
149.70000000000002
20
135.45000000000005
42
-0.41421356237309853
10
152.70000000000002
20
132.45000000000002
10
152.70000000000002
20
128.45000000000005
42
-0.41421356237309503
10
149.70000000000002
20
125.45000000000003
0
LWPOLYLINE
5
267
100
AcDbEntity
8
0
100
AcDbPolyline
90
14
70
1
43
0.0
10
110.69999999999999
20
125.45000000000003
42
-0.41421356237309503
10
107.69999999999999
20
128.45000000000002
10
107.69999999999997
20
132.45000000000002
42
-0.41421356237309503
10
110.69999999999999
20
135.45000000000002
10
124.69999999999999
20
135.45000000000002
42
-0.41421356237309853
10
127.69999999999999
20
132.45000000000002
10
127.69999999999999
20
128.45000000000002
42
-0.41421356237309503
10
124.69999999999999
20
125.45000000000002
10
124.24999999999999
20
125.45000000000002
10
123.74999999999999
20
125.95
10
123.74999999999999
20
131.44999999999999
10
111.64999999999999
20
131.44999999999999
10
111.64999999999999
20
125.95000000000002
10
111.14999999999998
20
125.45000000000002
0
LWPOLYLINE
5
268
100
AcDbEntity
8
0
100
AcDbPolyline
90
4
70
1
43
0.0
10
6.749999999999976
20
140.95000000000002
42
-0.99999999999999989
10
6.749999999999976
20
150.95000000000002
10
41.749999999999979
20
150.95000000000002
42
-0.99999999999999989
10
41.749999999999979
20
140.95000000000002
0
CIRCLE
5
269
100
AcDbEntity
8
0
100
AcDbCircle
10
41.749999999999979
20
145.95000000000002
30
0
40
1.5000000000000036
210
0
220
0
230
1
0
CIRCLE
5
270
100
AcDbEntity
8
0
100
AcDbCircle
10
6.749999999999976
20
145.95000000000002
30
0
40
2.2999999999999998
210
0
220
0
230
1
0
LWPOLYLINE
5
271
100
AcDbEntity
8
0
100
AcDbPolyline
90
4
70
1
43
0.0
10
41.749999999999979
20
160.94999999999999
10
6.749999999999976
20
160.94999999999999
42
-0.99999999999999989
10
6.749999999999976
20
170.94999999999999
10
41.749999999999979
20
170.94999999999999
42
-0.99999999999999989
0
CIRCLE
5
272
100
AcDbEntity
8
0
100
AcDbCircle
10
41.749999999999979
20
165.94999999999999
30
0
40
1.5000000000000036
210
0
220
0
230
1
0
CIRCLE
5
273
100
AcDbEntity
8
0
100
AcDbCircle
10
6.749999999999976
20
165.94999999999999
30
0
40
2.2999999999999998
210
0
220
0
230
1
0
LWPOLYLINE
5
274
100
AcDbEntity
8
0
100
AcDbPolyline
90
4
70
1
43
0.0
10
94.834166892825152
20
137.00429420153287
10
52.7542857142857
20
192.94429420153284
42
-0.99999999999999989
10
60.745714285714257
20
198.95570579846714
10
102.82559546425369
20
143.01570579846708
42
-0.99999999999999989
0
CIRCLE
5
275
100
AcDbEntity
8
0
100
AcDbCircle
10
56.749999999999979
20
195.94999999999999
30
0
40
1.5000000000000036
210
0
220
0
230
1
0
CIRCLE
5
276
100
AcDbEntity
8
0
100
AcDbCircle
10
76.749999999999986
20
200.94999999999999
30
0
40
1.5000000000000036
210
0
220
0
230
1
0
LWPOLYLINE
5
277
100
AcDbEntity
8
0
100
AcDbPolyline
90
4
70
1
43
0.0
10
72.7542857142857
20
197.94429420153284
42
-0.99999999999999989
10
80.745714285714257
20
203.95570579846714
10
122.82559546425369
20
148.01570579846708
42
-0.99999999999999989
10
114.83416689282515
20
142.00429420153287
0
ENDSEC
0
SECTION
2
OBJECTS
0
DICTIONARY
5
C
100
AcDbDictionary
3
ACAD_GROUP
350
D
3
ACAD_MLINESTYLE
350
17
0
DICTIONARY
5
D
100
AcDbDictionary
0
DICTIONARY
5
1A
330
C
100
AcDbDictionary
0
DICTIONARY
5
17
100
AcDbDictionary
0
ENDSEC
0
EOF
